<svg xmlns="http://www.w3.org/2000/svg" viewBox="0 0 64 64" width="64" height="64">
  <defs>
    <linearGradient id="bg" x1="0%" y1="0%" x2="100%" y2="100%">
      <stop offset="0%" style="stop-color:#4F46E5;stop-opacity:1" />
      <stop offset="100%" style="stop-color:#7C3AED;stop-opacity:1" />
    </linearGradient>
  </defs>
  <!-- Background rounded square -->
  <rect width="64" height="64" rx="14" fill="url(#bg)"/>
  <!-- Open Book -->
  <path d="M12 44 L12 20 Q12 18 14 18 L30 20 L30 44 Z" fill="white" opacity="0.9"/>
  <path d="M52 44 L52 20 Q52 18 50 18 L34 20 L34 44 Z" fill="white" opacity="0.9"/>
  <rect x="29" y="20" width="6" height="24" fill="white" opacity="0.5"/>
  <!-- Spine -->
  <path d="M30 20 L34 20 L34 44 L30 44 Z" fill="rgba(255,255,255,0.3)"/>
  <!-- Sparkle stars for AI -->
  <circle cx="32" cy="11" r="2.5" fill="white" opacity="0.95"/>
  <circle cx="24" cy="13" r="1.5" fill="white" opacity="0.7"/>
  <circle cx="40" cy="13" r="1.5" fill="white" opacity="0.7"/>
  <path d="M32 7 L32.8 9.5 L35.5 9.5 L33.4 11.2 L34.2 13.5 L32 12 L29.8 13.5 L30.6 11.2 L28.5 9.5 L31.2 9.5 Z" fill="white" opacity="0.9"/>
</svg>
